<svg width="135" height="47" viewBox="0 0 135 47" fill="none" xmlns="http://www.w3.org/2000/svg">
<rect x="0.5" y="0.5" width="134" height="46" rx="23" stroke="#F0BA4E"/>
<path d="M29.2784 29V17.3636H33.5398C34.3655 17.3636 35.0492 17.5 35.5909 17.7727C36.1326 18.0417 36.5379 18.4072 36.8068 18.8693C37.0758 19.3277 37.2102 19.8447 37.2102 20.4205C37.2102 20.9053 37.1212 21.3144 36.9432 21.6477C36.7652 21.9773 36.5265 22.2424 36.2273 22.4432C35.9318 22.6402 35.6061 22.7841 35.25 22.875V22.9886C35.6364 23.0076 36.0133 23.1326 36.3807 23.3636C36.7519 23.5909 37.0587 23.9148 37.3011 24.3352C37.5436 24.7557 37.6648 25.267 37.6648 25.8693C37.6648 26.464 37.5246 26.9981 37.2443 27.4716C36.9678 27.9413 36.5398 28.3144 35.9602 28.5909C35.3807 28.8636 34.6402 29 33.7386 29H29.2784ZM31.0341 27.4943H33.5682C34.4091 27.4943 35.0114 27.3314 35.375 27.0057C35.7386 26.6799 35.9205 26.2727 35.9205 25.7841C35.9205 25.4167 35.8277 25.0795 35.642 24.7727C35.4564 24.4659 35.1913 24.2216 34.8466 24.0398C34.5057 23.858 34.1004 23.767 33.6307 23.767H31.0341V27.4943ZM31.0341 22.3977H33.3864C33.7803 22.3977 34.1345 22.322 34.4489 22.1705C34.767 22.0189 35.0189 21.8068 35.2045 21.5341C35.3939 21.2576 35.4886 20.9318 35.4886 20.5568C35.4886 20.0758 35.3201 19.6723 34.983 19.3466C34.6458 19.0208 34.1288 18.858 33.4318 18.858H31.0341V22.3977ZM43.8452 29V20.2727H45.544V23.9318H46.3622L49.2429 20.2727H51.3452L47.9645 24.517L51.3849 29H49.277L46.6463 25.5114H45.544V29H43.8452ZM56.0213 29.1761C55.2031 29.1761 54.4891 28.9886 53.8793 28.6136C53.2694 28.2386 52.7959 27.714 52.4588 27.0398C52.1217 26.3655 51.9531 25.5777 51.9531 24.6761C51.9531 23.7708 52.1217 22.9792 52.4588 22.3011C52.7959 21.6231 53.2694 21.0966 53.8793 20.7216C54.4891 20.3466 55.2031 20.1591 56.0213 20.1591C56.8395 20.1591 57.5535 20.3466 58.1634 20.7216C58.7732 21.0966 59.2467 21.6231 59.5838 22.3011C59.9209 22.9792 60.0895 23.7708 60.0895 24.6761C60.0895 25.5777 59.9209 26.3655 59.5838 27.0398C59.2467 27.714 58.7732 28.2386 58.1634 28.6136C57.5535 28.9886 56.8395 29.1761 56.0213 29.1761ZM56.027 27.75C56.5573 27.75 56.9967 27.6098 57.3452 27.3295C57.6937 27.0492 57.9512 26.6761 58.1179 26.2102C58.2884 25.7443 58.3736 25.2311 58.3736 24.6705C58.3736 24.1136 58.2884 23.6023 58.1179 23.1364C57.9512 22.6667 57.6937 22.2898 57.3452 22.0057C56.9967 21.7216 56.5573 21.5795 56.027 21.5795C55.4929 21.5795 55.0497 21.7216 54.6974 22.0057C54.349 22.2898 54.0895 22.6667 53.919 23.1364C53.7524 23.6023 53.669 24.1136 53.669 24.6705C53.669 25.2311 53.7524 25.7443 53.919 26.2102C54.0895 26.6761 54.349 27.0492 54.6974 27.3295C55.0497 27.6098 55.4929 27.75 56.027 27.75ZM61.9858 32.2727V20.2727H63.6449V21.6875H63.7869C63.8854 21.5057 64.0275 21.2955 64.2131 21.0568C64.3987 20.8182 64.6563 20.6098 64.9858 20.4318C65.3153 20.25 65.7509 20.1591 66.2926 20.1591C66.9972 20.1591 67.6259 20.3371 68.179 20.6932C68.732 21.0492 69.1657 21.5625 69.4801 22.233C69.7983 22.9034 69.9574 23.7102 69.9574 24.6534C69.9574 25.5966 69.8002 26.4053 69.4858 27.0795C69.1714 27.75 68.7396 28.267 68.1903 28.6307C67.6411 28.9905 67.0142 29.1705 66.3097 29.1705C65.7794 29.1705 65.3456 29.0814 65.0085 28.9034C64.6752 28.7254 64.4138 28.517 64.2244 28.2784C64.035 28.0398 63.8892 27.8277 63.7869 27.642H63.6847V32.2727H61.9858ZM63.6506 24.6364C63.6506 25.25 63.7396 25.7879 63.9176 26.25C64.0956 26.7121 64.3532 27.0739 64.6903 27.3352C65.0275 27.5928 65.4403 27.7216 65.929 27.7216C66.4366 27.7216 66.8608 27.5871 67.2017 27.3182C67.5426 27.0455 67.8002 26.6761 67.9744 26.2102C68.1525 25.7443 68.2415 25.2197 68.2415 24.6364C68.2415 24.0606 68.1544 23.5436 67.9801 23.0852C67.8097 22.6269 67.5521 22.2652 67.2074 22C66.8665 21.7348 66.4403 21.6023 65.929 21.6023C65.4366 21.6023 65.0199 21.7292 64.679 21.983C64.3419 22.2367 64.0862 22.5909 63.9119 23.0455C63.7377 23.5 63.6506 24.0303 63.6506 24.6364ZM71.3438 26.6932H73.0824C73.1051 27.0492 73.2661 27.3239 73.5653 27.517C73.8684 27.7102 74.2604 27.8068 74.7415 27.8068C75.2301 27.8068 75.6468 27.7027 75.9915 27.4943C76.3362 27.2822 76.5085 26.9545 76.5085 26.5114C76.5085 26.2462 76.4422 26.0152 76.3097 25.8182C76.1809 25.6174 75.9972 25.4621 75.7585 25.3523C75.5237 25.2424 75.2453 25.1875 74.9233 25.1875H73.5028V23.8523H74.9233C75.4044 23.8523 75.7642 23.7424 76.0028 23.5227C76.2415 23.303 76.3608 23.0284 76.3608 22.6989C76.3608 22.3428 76.232 22.0568 75.9744 21.8409C75.7206 21.6212 75.3665 21.5114 74.9119 21.5114C74.4498 21.5114 74.0653 21.6155 73.7585 21.8239C73.4517 22.0284 73.2907 22.2936 73.2756 22.6193H71.5597C71.571 22.1307 71.7188 21.7027 72.0028 21.3352C72.2907 20.964 72.6771 20.6761 73.1619 20.4716C73.6506 20.2633 74.2055 20.1591 74.8267 20.1591C75.4744 20.1591 76.035 20.2633 76.5085 20.4716C76.982 20.6799 77.3475 20.9678 77.6051 21.3352C77.8665 21.7027 77.9972 22.125 77.9972 22.6023C77.9972 23.0833 77.8532 23.4773 77.5653 23.7841C77.2812 24.0871 76.91 24.3049 76.4517 24.4375V24.5284C76.7888 24.5511 77.0881 24.6534 77.3494 24.8352C77.6108 25.017 77.8153 25.2576 77.9631 25.5568C78.1108 25.8561 78.1847 26.1951 78.1847 26.5739C78.1847 27.108 78.0369 27.5701 77.7415 27.9602C77.4498 28.3504 77.0445 28.6515 76.5256 28.8636C76.0104 29.072 75.4214 29.1761 74.7585 29.1761C74.1146 29.1761 73.5369 29.0758 73.0256 28.875C72.518 28.6705 72.1146 28.3826 71.8153 28.0114C71.5199 27.6402 71.3627 27.2008 71.3438 26.6932ZM81.6037 26.6193L85.4503 20.2727H87.2798V29H85.6151V22.6477L81.7855 29H79.9389V20.2727H81.6037V26.6193ZM95.4787 23.9034V25.375H90.7514V23.9034H95.4787ZM91.2287 20.2727V29H89.5639V20.2727H91.2287ZM96.6662 20.2727V29H95.0071V20.2727H96.6662ZM99.7003 32.2727C99.4465 32.2727 99.2154 32.2519 99.0071 32.2102C98.7988 32.1723 98.6435 32.1307 98.5412 32.0852L98.9503 30.6932C99.2609 30.7765 99.5374 30.8125 99.7798 30.8011C100.022 30.7898 100.236 30.6989 100.422 30.5284C100.611 30.358 100.778 30.0795 100.922 29.6932L101.132 29.1136L97.9389 20.2727H99.7571L101.967 27.0455H102.058L104.268 20.2727H106.092L102.496 30.1648C102.329 30.6193 102.117 31.0038 101.859 31.3182C101.602 31.6364 101.295 31.875 100.939 32.0341C100.583 32.1932 100.17 32.2727 99.7003 32.2727Z" fill="#3C3C3B"/>
</svg>
