<svg width="24" height="21" viewBox="0 0 24 21" fill="none" xmlns="http://www.w3.org/2000/svg">
<path d="M20.8401 3.10987C20.3294 2.59888 19.7229 2.19352 19.0555 1.91696C18.388 1.64039 17.6726 1.49805 16.9501 1.49805C16.2276 1.49805 15.5122 1.64039 14.8448 1.91696C14.1773 2.19352 13.5709 2.59888 13.0601 3.10987L12.0001 4.16987L10.9401 3.10987C9.90843 2.07818 8.50915 1.49858 7.05012 1.49858C5.59109 1.49858 4.19181 2.07818 3.16012 3.10987C2.12843 4.14156 1.54883 5.54084 1.54883 6.99987C1.54883 8.45891 2.12843 9.85818 3.16012 10.8899L4.22012 11.9499L12.0001 19.7299L19.7801 11.9499L20.8401 10.8899C21.3511 10.3791 21.7565 9.77269 22.033 9.10523C22.3096 8.43777 22.4519 7.72236 22.4519 6.99987C22.4519 6.27738 22.3096 5.56198 22.033 4.89452C21.7565 4.22706 21.3511 3.62063 20.8401 3.10987V3.10987Z" stroke="#3C3C3B" stroke-width="2" stroke-linecap="round" stroke-linejoin="round"/>
</svg>
