<svg width="16" height="24" viewBox="0 0 16 24" fill="none" xmlns="http://www.w3.org/2000/svg">
<path fill-rule="evenodd" clip-rule="evenodd" d="M0 12C0 11.4477 0.447715 11 1 11H15C15.5523 11 16 11.4477 16 12C16 12.5523 15.5523 13 15 13H1C0.447715 13 0 12.5523 0 12Z" fill="#3C3C3B"/>
<path fill-rule="evenodd" clip-rule="evenodd" d="M0 16C0 15.4477 0.335786 15 0.75 15H11.25C11.6642 15 12 15.4477 12 16C12 16.5523 11.6642 17 11.25 17H0.75C0.335786 17 0 16.5523 0 16Z" fill="#3C3C3B"/>
<path fill-rule="evenodd" clip-rule="evenodd" d="M0 8C0 7.44772 0.447715 7 1 7H15C15.5523 7 16 7.44772 16 8C16 8.55228 15.5523 9 15 9H1C0.447715 9 0 8.55228 0 8Z" fill="#3C3C3B"/>
</svg>
