<svg width="109" height="39" viewBox="0 0 109 39" fill="none" xmlns="http://www.w3.org/2000/svg">
<rect width="109" height="39" rx="19.5" fill="#08C785"/>
<path d="M21.1477 25V13.3636H23.2557V18.2898H28.6477V13.3636H30.7614V25H28.6477V20.0568H23.2557V25H21.1477ZM36.7699 25.1705C35.9176 25.1705 35.179 24.983 34.554 24.608C33.929 24.233 33.4441 23.7083 33.0994 23.0341C32.7585 22.3598 32.5881 21.572 32.5881 20.6705C32.5881 19.7689 32.7585 18.9792 33.0994 18.3011C33.4441 17.6231 33.929 17.0966 34.554 16.7216C35.179 16.3466 35.9176 16.1591 36.7699 16.1591C37.6222 16.1591 38.3608 16.3466 38.9858 16.7216C39.6108 17.0966 40.0938 17.6231 40.4347 18.3011C40.7794 18.9792 40.9517 19.7689 40.9517 20.6705C40.9517 21.572 40.7794 22.3598 40.4347 23.0341C40.0938 23.7083 39.6108 24.233 38.9858 24.608C38.3608 24.983 37.6222 25.1705 36.7699 25.1705ZM36.7812 23.5227C37.2434 23.5227 37.6297 23.3958 37.9403 23.142C38.2509 22.8845 38.482 22.5398 38.6335 22.108C38.7888 21.6761 38.8665 21.1951 38.8665 20.6648C38.8665 20.1307 38.7888 19.6477 38.6335 19.2159C38.482 18.7803 38.2509 18.4337 37.9403 18.1761C37.6297 17.9186 37.2434 17.7898 36.7812 17.7898C36.3078 17.7898 35.9138 17.9186 35.5994 18.1761C35.2888 18.4337 35.0559 18.7803 34.9006 19.2159C34.7491 19.6477 34.6733 20.1307 34.6733 20.6648C34.6733 21.1951 34.7491 21.6761 34.9006 22.108C35.0559 22.5398 35.2888 22.8845 35.5994 23.142C35.9138 23.3958 36.3078 23.5227 36.7812 23.5227ZM42.6974 25V16.2727H46.3622C47.3963 16.2727 48.2126 16.4792 48.8111 16.892C49.4134 17.3049 49.7145 17.8807 49.7145 18.6193C49.7145 19.108 49.544 19.5076 49.2031 19.8182C48.866 20.125 48.4058 20.3314 47.8224 20.4375C48.2808 20.4754 48.6823 20.5909 49.027 20.7841C49.3755 20.9773 49.6482 21.2311 49.8452 21.5455C50.0421 21.8598 50.1406 22.2216 50.1406 22.6307C50.1406 23.1117 50.0137 23.5303 49.7599 23.8864C49.5099 24.2386 49.1444 24.5133 48.6634 24.7102C48.1861 24.9034 47.6065 25 46.9247 25H42.6974ZM44.6236 23.3807H46.9247C47.3035 23.3807 47.6009 23.2917 47.8168 23.1136C48.0327 22.9318 48.1406 22.6856 48.1406 22.375C48.1406 22.0152 48.0327 21.733 47.8168 21.5284C47.6009 21.3201 47.3035 21.2159 46.9247 21.2159H44.6236V23.3807ZM44.6236 19.8864H46.402C46.6823 19.8864 46.9228 19.8466 47.1236 19.767C47.3243 19.6837 47.4777 19.5682 47.5838 19.4205C47.6899 19.2689 47.7429 19.089 47.7429 18.8807C47.7429 18.5814 47.6198 18.3466 47.3736 18.1761C47.1312 18.0057 46.794 17.9205 46.3622 17.9205H44.6236V19.8864ZM53.821 22.2159L57.3153 16.2727H59.429V25H57.4403V19.0511L53.9574 25H51.8381V16.2727H53.821V22.2159ZM67.5355 19.7841V21.4716H62.8878V19.7841H67.5355ZM63.5241 16.2727V25H61.5412V16.2727H63.5241ZM68.8821 16.2727V25H66.9048V16.2727H68.8821ZM70.9631 25V16.2727H73.0199V19.7955H73.7699L76.3949 16.2727H78.8722L75.6392 20.5568L78.9062 25H76.4176L74.0256 21.7102H73.0199V25H70.9631ZM82.5838 25.1761C82.0308 25.1761 81.5327 25.0777 81.0895 24.8807C80.6501 24.6799 80.3016 24.3845 80.044 23.9943C79.7902 23.6042 79.6634 23.1231 79.6634 22.5511C79.6634 22.0587 79.7543 21.6515 79.9361 21.3295C80.1179 21.0076 80.366 20.75 80.6804 20.5568C80.9948 20.3636 81.349 20.2178 81.7429 20.1193C82.1406 20.017 82.5516 19.9432 82.9759 19.8977C83.4872 19.8447 83.902 19.7973 84.2202 19.7557C84.5384 19.7102 84.7694 19.642 84.9134 19.5511C85.0611 19.4564 85.1349 19.3106 85.1349 19.1136V19.0795C85.1349 18.6515 85.008 18.3201 84.7543 18.0852C84.5005 17.8504 84.1349 17.733 83.6577 17.733C83.1539 17.733 82.7543 17.8428 82.4588 18.0625C82.1671 18.2822 81.9702 18.5417 81.8679 18.8409L79.9474 18.5682C80.099 18.0379 80.349 17.5947 80.6974 17.2386C81.0459 16.8788 81.4721 16.6098 81.9759 16.4318C82.4796 16.25 83.0365 16.1591 83.6463 16.1591C84.0668 16.1591 84.4853 16.2083 84.902 16.3068C85.3187 16.4053 85.6993 16.5682 86.044 16.7955C86.3887 17.0189 86.6652 17.3239 86.8736 17.7102C87.0857 18.0966 87.1918 18.5795 87.1918 19.1591V25H85.2145V23.8011H85.1463C85.0213 24.0436 84.8452 24.2708 84.6179 24.483C84.3944 24.6913 84.1122 24.8598 83.7713 24.9886C83.4342 25.1136 83.0384 25.1761 82.5838 25.1761ZM83.1179 23.6648C83.5308 23.6648 83.8887 23.5833 84.1918 23.4205C84.4948 23.2538 84.7277 23.0341 84.8906 22.7614C85.0573 22.4886 85.1406 22.1913 85.1406 21.8693V20.8409C85.0762 20.8939 84.9664 20.9432 84.8111 20.9886C84.6596 21.0341 84.4891 21.0739 84.2997 21.108C84.1103 21.142 83.9228 21.1723 83.7372 21.1989C83.5516 21.2254 83.3906 21.2481 83.2543 21.267C82.9474 21.3087 82.6728 21.3769 82.4304 21.4716C82.188 21.5663 81.9967 21.6989 81.8565 21.8693C81.7164 22.036 81.6463 22.2519 81.6463 22.517C81.6463 22.8958 81.7846 23.1818 82.0611 23.375C82.3376 23.5682 82.6899 23.6648 83.1179 23.6648Z" fill="white"/>
</svg>
