<svg width="54" height="39" viewBox="0 0 54 39" fill="none" xmlns="http://www.w3.org/2000/svg">
<rect width="54" height="39" rx="19.5" fill="#FA5D69"/>
<path d="M27.2557 22.8182V22.2045C27.2557 21.7538 27.3504 21.339 27.5398 20.9602C27.733 20.5814 28.0133 20.2765 28.3807 20.0455C28.7481 19.8144 29.1932 19.6989 29.7159 19.6989C30.2538 19.6989 30.7045 19.8144 31.0682 20.0455C31.4318 20.2727 31.7064 20.5758 31.892 20.9545C32.0814 21.3333 32.1761 21.75 32.1761 22.2045V22.8182C32.1761 23.2689 32.0814 23.6837 31.892 24.0625C31.7027 24.4413 31.4242 24.7462 31.0568 24.9773C30.6932 25.2083 30.2462 25.3239 29.7159 25.3239C29.1856 25.3239 28.7367 25.2083 28.3693 24.9773C28.0019 24.7462 27.7235 24.4413 27.5341 24.0625C27.3485 23.6837 27.2557 23.2689 27.2557 22.8182ZM28.7386 22.2045V22.8182C28.7386 23.1174 28.8106 23.392 28.9545 23.642C29.0985 23.892 29.3523 24.017 29.7159 24.017C30.0833 24.017 30.3352 23.8939 30.4716 23.6477C30.6117 23.3977 30.6818 23.1212 30.6818 22.8182V22.2045C30.6818 21.9015 30.6155 21.625 30.483 21.375C30.3504 21.1212 30.0947 20.9943 29.7159 20.9943C29.3598 20.9943 29.108 21.1212 28.9602 21.375C28.8125 21.625 28.7386 21.9015 28.7386 22.2045ZM21.3409 16.1591V15.5455C21.3409 15.0909 21.4375 14.6742 21.6307 14.2955C21.8239 13.9167 22.1042 13.6136 22.4716 13.3864C22.839 13.1553 23.2841 13.0398 23.8068 13.0398C24.3409 13.0398 24.7898 13.1553 25.1534 13.3864C25.5208 13.6136 25.7973 13.9167 25.983 14.2955C26.1686 14.6742 26.2614 15.0909 26.2614 15.5455V16.1591C26.2614 16.6136 26.1667 17.0303 25.9773 17.4091C25.7917 17.7841 25.5152 18.0852 25.1477 18.3125C24.7803 18.5398 24.3333 18.6534 23.8068 18.6534C23.2727 18.6534 22.822 18.5398 22.4545 18.3125C22.0909 18.0852 21.8144 17.7822 21.625 17.4034C21.4356 17.0246 21.3409 16.6098 21.3409 16.1591ZM22.8352 15.5455V16.1591C22.8352 16.4621 22.9053 16.7386 23.0455 16.9886C23.1894 17.2348 23.4432 17.358 23.8068 17.358C24.1705 17.358 24.4205 17.2348 24.5568 16.9886C24.697 16.7386 24.767 16.4621 24.767 16.1591V15.5455C24.767 15.2424 24.7008 14.9659 24.5682 14.7159C24.4356 14.4621 24.1818 14.3352 23.8068 14.3352C23.447 14.3352 23.1951 14.4621 23.0511 14.7159C22.9072 14.9697 22.8352 15.2462 22.8352 15.5455ZM21.9886 25L29.9886 13.3636H31.4091L23.4091 25H21.9886Z" fill="white"/>
</svg>
