<svg width="18" height="18" viewBox="0 0 18 18" fill="none" xmlns="http://www.w3.org/2000/svg">
<path d="M9.12143 7.71429V10.8H14.3929C14.1357 12.0857 12.85 14.6571 9.25 14.6571C6.16429 14.6571 3.72143 12.0857 3.72143 9C3.72143 5.91429 6.29286 3.34286 9.25 3.34286C11.05 3.34286 12.2071 4.11429 12.85 4.75714L15.2929 2.44286C13.75 0.9 11.6929 0 9.25 0C4.23571 0 0.25 3.98571 0.25 9C0.25 14.0143 4.23571 18 9.25 18C14.3929 18 17.8643 14.4 17.8643 9.25714C17.8643 8.61429 17.8643 8.22857 17.7357 7.71429H9.12143Z" fill="#1A1A1A"/>
</svg>
