<svg width="28" height="18" viewBox="0 0 28 18" fill="none" xmlns="http://www.w3.org/2000/svg">
<path d="M14.183 11.985C14.2589 11.0214 13.9895 10.0622 13.423 9.27901C12.8565 8.4958 12.0299 7.93965 11.091 7.71C11.7963 7.43754 12.3983 6.95082 12.8125 6.31832C13.2267 5.68582 13.4322 4.93937 13.4 4.184C13.4 0.82 10.889 0 7.988 0H0V16.888H8.212C11.291 16.888 14.183 15.416 14.183 11.985ZM3.724 2.883H7.218C8.561 2.883 9.771 3.259 9.771 4.813C9.771 6.247 8.83 6.824 7.5 6.824H3.724V2.883ZM3.724 14.02V9.369H7.782C9.421 9.369 10.458 10.05 10.458 11.78C10.458 13.486 9.22 14.019 7.705 14.019L3.724 14.02Z" fill="#0C0C41"/>
<path d="M21.562 17.208C22.8507 17.312 24.1347 16.9559 25.1857 16.2029C26.2368 15.4499 26.9869 14.3487 27.303 13.095H24.331C24.0956 13.5956 23.7168 14.0149 23.2427 14.2998C22.7685 14.5846 22.2204 14.7222 21.668 14.695C21.2538 14.7348 20.836 14.6808 20.4457 14.5369C20.0553 14.3931 19.7023 14.1631 19.413 13.8641C19.1237 13.5651 18.9055 13.2048 18.7746 12.8099C18.6437 12.4149 18.6035 11.9956 18.657 11.583H27.505C27.52 11.383 27.534 11.17 27.534 10.955C27.534 7.338 25.412 4.322 21.564 4.322C20.7182 4.30395 19.8778 4.4605 19.0952 4.78188C18.3126 5.10326 17.6048 5.58256 17.0158 6.18983C16.4268 6.79711 15.9694 7.51931 15.6721 8.31133C15.3748 9.10335 15.244 9.94817 15.288 10.793C15.286 14.596 17.69 17.208 21.562 17.208ZM21.462 6.854C21.8149 6.82838 22.1694 6.87779 22.5019 6.99898C22.8344 7.12017 23.1375 7.31039 23.3912 7.55712C23.645 7.80386 23.8436 8.10153 23.974 8.43053C24.1044 8.75954 24.1637 9.11244 24.148 9.466H18.662C18.6638 9.1074 18.7389 8.75297 18.8828 8.42446C19.0266 8.09596 19.236 7.80032 19.4982 7.55571C19.7605 7.31109 20.0699 7.12266 20.4076 7.00199C20.7453 6.88133 21.1041 6.83096 21.462 6.854Z" fill="#0C0C41"/>
<path d="M17.973 0.886993H24.843V2.54999H17.973V0.886993Z" fill="#0C0C41"/>
</svg>
