<svg width="18" height="18" viewBox="0 0 18 18" fill="none" xmlns="http://www.w3.org/2000/svg">
<path d="M4.06695 5.56H0.220947V17.11H4.06695V5.56Z" fill="#0C0C41"/>
<path d="M16.692 6.615C16.2852 6.17583 15.788 5.83012 15.2347 5.60171C14.6814 5.3733 14.0851 5.26763 13.487 5.29199C13.0356 5.28675 12.5858 5.34773 12.152 5.47299C11.7851 5.57664 11.4411 5.74866 11.138 5.97999C10.6921 6.31261 10.3143 6.72781 10.025 7.203V5.561H6.19202L6.20401 6.121C6.21201 6.49433 6.216 7.64433 6.216 9.57099C6.216 11.4977 6.20834 14.0113 6.19301 17.112H10.028V10.661C10.0167 10.3413 10.06 10.0221 10.156 9.71699C10.3135 9.32609 10.5682 8.98188 10.896 8.71699C11.2461 8.44292 11.6817 8.30127 12.126 8.317C12.4106 8.29591 12.6958 8.34861 12.954 8.47001C13.2122 8.59141 13.4347 8.77741 13.6 9.00999C13.9451 9.58759 14.1094 10.2552 14.072 10.927V17.104H17.907V10.484C18.0046 9.08722 17.5706 7.70519 16.692 6.615Z" fill="#0C0C41"/>
<path d="M2.16795 -6.28689e-06C1.59131 -0.0252572 1.02795 0.17774 0.599953 0.564993C0.404222 0.746508 0.249459 0.967683 0.145993 1.21376C0.0425276 1.45983 -0.0072601 1.72515 -4.69973e-05 1.99199C-0.00665152 2.25647 0.0417596 2.51943 0.142118 2.76422C0.242476 3.009 0.392593 3.23027 0.582953 3.41399C0.787874 3.60751 1.02965 3.7578 1.29389 3.8559C1.55812 3.954 1.83939 3.9979 2.12095 3.98499H2.14395C2.72508 4.0109 3.29281 3.80559 3.72295 3.41399C3.91771 3.23334 4.07116 3.01277 4.17282 2.76735C4.27447 2.52193 4.32193 2.25745 4.31195 1.99199C4.31592 1.72599 4.26525 1.46201 4.16308 1.21638C4.0609 0.970751 3.9094 0.748708 3.71795 0.563994C3.51003 0.371704 3.26587 0.222787 2.99973 0.125948C2.7336 0.0291092 2.45083 -0.0137096 2.16795 -6.28689e-06Z" fill="#0C0C41"/>
</svg>
