<svg width="120" height="128" viewBox="0 0 120 128" fill="none" xmlns="http://www.w3.org/2000/svg">
<circle cx="59.8504" cy="59.8504" r="59.8504" fill="#EEF7FE"/>
<g filter="url(#filter0_d_202_208)">
<mask id="mask0_202_208" style="mask-type:alpha" maskUnits="userSpaceOnUse" x="1" y="4" width="116" height="116">
<path d="M116.65 62.4938C116.651 70.0451 115.165 77.5228 112.277 84.4997C109.388 91.4766 105.154 97.8162 99.8152 103.156C94.4767 108.496 88.1388 112.732 81.1633 115.622C74.1878 118.512 66.7114 120 59.161 120C43.9114 120 29.2864 113.941 18.5034 103.157C7.72032 92.3723 1.66248 77.7454 1.66248 62.4938C1.66248 47.2421 7.72032 32.6152 18.5034 21.8307C29.2864 11.0462 43.9114 4.98753 59.161 4.98753C66.7114 4.98753 74.1878 6.47504 81.1633 9.36512C88.1388 12.2552 94.4767 16.4912 99.8152 21.8313C105.154 27.1714 109.388 33.5109 112.277 40.4878C115.165 47.4647 116.651 54.9424 116.65 62.4938Z" fill="#F1F3F6"/>
</mask>
<g mask="url(#mask0_202_208)">
<path d="M105.937 127.478H14.7168C14.8828 125.863 15.7053 120.248 19.8102 113.07C24.6847 104.534 46.4164 105.749 47.1483 104.534C47.4653 104.006 47.6464 101.855 47.752 99.5983C47.8803 96.6699 47.8803 93.5604 47.8803 93.5604L60.3308 97.2285L72.7812 93.5604C72.7812 93.5604 72.7812 96.6473 72.9019 99.5983C73.0151 101.863 73.1887 104.044 73.5131 104.58C74.2677 105.795 95.9693 104.58 100.851 113.116C104.949 120.248 105.779 125.863 105.937 127.478Z" fill="#E1A387"/>
<path d="M105.937 127.478H14.7168C14.8828 125.863 15.7053 120.248 19.8102 113.07C23.915 105.893 40.1082 105.598 45.4657 104.964C46.4391 104.844 47.0503 104.723 47.1635 104.534C47.1635 104.534 60.1044 121.38 73.5283 104.534C73.649 104.746 74.4187 104.881 75.626 105.017C81.3306 105.621 96.837 106.029 100.866 113.07C104.949 120.248 105.779 125.863 105.937 127.478Z" fill="#860018"/>
<path d="M75.611 105.017C65.047 119.712 52.4456 111.659 45.4281 104.964C46.4015 104.844 47.0127 104.723 47.1259 104.534C47.1259 104.534 60.0668 121.38 73.4907 104.534C73.634 104.746 74.4037 104.881 75.611 105.017Z" fill="#6B1524"/>
<path d="M39.0213 68.1258C39.0213 68.1258 33.2489 58.3746 30.8644 66.7295C28.4799 75.0845 34.2449 79.0695 38.0253 78.277C41.8057 77.4845 39.0213 68.1258 39.0213 68.1258Z" fill="#E1A387"/>
<path d="M38.3503 69.7183C38.3503 69.7183 34.3737 63.5446 32.9778 66.0352C32.1281 67.796 31.7858 69.7587 31.9893 71.7032C31.9893 71.7032 32.7815 68.2239 35.3697 70.1938C35.3697 70.1938 32.8796 75.7637 37.9579 74.1713C37.9277 74.1939 40.0179 72.5033 38.3503 69.7183Z" fill="#CE8D75"/>
<path d="M80.4555 68.1258C80.4555 68.1258 86.228 58.3746 88.6125 66.7295C90.9969 75.0845 85.232 79.0695 81.4516 78.277C77.6711 77.4845 80.4555 68.1258 80.4555 68.1258Z" fill="#E1A387"/>
<path d="M80.5383 70.3674C80.5383 70.3674 84.5149 64.1936 85.9109 66.6843C86.7608 68.445 87.1056 70.4072 86.9069 72.3523C86.9069 72.3523 86.107 68.873 83.5188 70.8429C83.5188 70.8429 86.0089 76.4128 80.9307 74.8203C80.9307 74.843 78.848 73.1523 80.5383 70.3674Z" fill="#CE8D75"/>
<path d="M80.6062 84.0432C80.1685 91.2132 71.9965 96.519 66.6541 98.8889C63.5933 100.316 60.1582 100.734 56.8446 100.081C36.6522 94.1416 37.2257 80.4582 38.1312 76.6166C39.0367 72.775 37.7992 65.2955 40.1685 56.4198C40.4737 55.2712 40.9278 54.1675 41.5192 53.1367C45.1337 46.8271 52.8379 44.7969 52.8379 44.7969C66.1863 36.1703 75.5279 44.646 78.6065 51.5895C78.8111 52.0429 78.9925 52.5064 79.1498 52.9782C81.4815 60.1256 81.0589 75.9977 80.6062 84.0432Z" fill="#F2C2AC"/>
<path fill-rule="evenodd" clip-rule="evenodd" d="M73.8018 38.8206C73.8554 38.8073 73.9091 38.7944 73.9628 38.7819C74.4223 38.6691 74.8886 38.5859 75.3588 38.5329C75.7525 38.5369 76.1456 38.5646 76.5359 38.6159C76.9508 38.6801 77.3597 38.7786 77.7583 38.9102C83.5686 40.865 84.0289 49.9672 83.2441 57.8919C83.1837 58.4504 83.1234 59.0089 83.0555 59.5523C82.6716 62.5973 82.13 65.6203 81.4331 68.6091C81.3631 68.9218 81.296 69.1969 81.239 69.431C81.2037 69.5755 81.1723 69.7044 81.1464 69.8167C81.0634 70.1639 81.0105 70.3526 81.0105 70.3526L80.8672 69.4016V69.2733C80.5578 66.8959 79.3581 63.8241 77.8942 60.6995C76.1845 57.2427 74.3258 53.8628 72.3235 50.5693C68.8653 51.6929 63.6526 53.2228 56.9952 54.6991C55.6973 54.9859 54.3542 55.2727 52.9432 55.5519C51.0265 55.9343 49.0143 56.3067 46.9066 56.6689C38.5383 58.0803 34.7277 55.6274 33.0601 52.4726C32.9265 52.2274 32.8057 51.9755 32.6979 51.7179C31.136 47.9442 32.2603 43.5139 32.2603 43.5139C32.6979 44.4422 33.6638 44.5328 35.0522 44.0422C35.3092 43.9529 35.5611 43.8496 35.8068 43.7327C37.6721 42.911 40.1292 41.3233 42.9706 39.4872C47.7497 36.399 53.6161 32.6082 59.5834 30.5777C60.7653 30.1617 62.0132 29.9648 63.2657 29.9965C63.8589 30.0175 64.4482 30.101 65.0238 30.2456C66.8947 30.7561 68.589 31.7718 69.9211 33.1815C70.1248 33.3928 70.3285 33.6042 70.5247 33.823C71.7342 35.2225 72.7657 36.7663 73.5958 38.4194C73.6657 38.5526 73.7343 38.6865 73.8018 38.8206Z" fill="#A16929"/>
<path d="M39.0061 44.1984C38.7571 44.9531 37.9497 59.7913 38.7194 66.5235L45.835 47.8589L39.0061 44.1984Z" fill="#A16929"/>
<path d="M70.5401 33.7928C68.7064 35.8684 66.8427 37.9061 64.8053 39.8307C59.1687 45.1893 52.6416 49.8385 45.0355 51.9065C41.2626 52.9179 36.8559 53.5518 33.0604 52.4726C32.9268 52.2273 32.806 51.9754 32.6982 51.7178C33.0227 51.8159 33.3472 51.8914 33.7018 51.9669C40.493 53.3556 48.0387 50.8876 53.8867 47.4385C60.0177 43.6525 65.4477 38.8341 69.9364 33.1966C70.1401 33.3626 70.3439 33.574 70.5401 33.7928Z" fill="#C98643"/>
<path d="M65.0395 30.2154C61.5986 35.8835 57.0787 40.8798 51.842 44.1177C47.5862 46.7441 42.7871 47.7253 37.9956 46.1177C36.8136 45.7509 35.7816 45.0124 35.0527 44.012C35.3097 43.9227 35.5616 43.8194 35.8073 43.7025C36.2531 44.1947 36.7949 44.5903 37.3994 44.8648C39.9319 45.9977 42.7673 46.2629 45.4658 45.6196C50.0536 44.5101 54.0453 41.4383 57.2447 38.0722C59.5537 35.6101 61.5786 32.8961 63.2813 29.9814C63.8739 29.9974 64.4632 30.0759 65.0395 30.2154Z" fill="#C98643"/>
<path d="M74.2981 39.7779C70.982 43.6589 67.2864 47.1986 63.2663 50.3442C61.2732 51.9287 59.1786 53.3809 56.9958 54.6915C55.6979 54.9783 54.3548 55.2651 52.9437 55.5444C57.1142 53.6501 60.9636 51.1164 64.3529 48.0347C67.7033 45.0814 70.8003 41.8524 73.6115 38.3816C73.8529 38.8496 74.0793 39.3175 74.2981 39.7779Z" fill="#C98643"/>
<path d="M47.0351 61.2803C44.7714 62.6691 43.4207 66.0729 44.7714 68.2692C44.8318 68.3824 45.0657 68.3371 45.0506 68.2088C44.9436 67.1927 45.0671 66.1655 45.412 65.2037C45.7569 64.2419 46.3143 63.3704 47.0427 62.654C48.0157 61.7668 49.2802 61.2674 50.5967 61.2501C52.1058 61.152 52.7699 62.503 53.9546 62.9634C54.196 63.0615 54.5054 62.903 54.4224 62.654C53.4867 59.8313 49.3517 59.8765 47.0351 61.2803Z" fill="#390A0A"/>
<path d="M55.0259 67.6201C55.0259 71.2806 52.7622 74.2543 50.0005 74.2543C47.2387 74.2543 44.9825 71.2806 44.9825 67.6201C44.9825 63.9596 47.2463 60.986 50.0005 60.986C52.7547 60.986 55.0259 63.9596 55.0259 67.6201Z" fill="white"/>
<path d="M53.9623 67.8163C53.9623 70.5409 52.2494 72.7523 50.1366 72.7523C48.0238 72.7523 46.3109 70.5409 46.3109 67.8163C46.3109 65.0918 48.0238 62.8728 50.1366 62.8728C52.2494 62.8728 53.9623 65.1068 53.9623 67.8163Z" fill="#3D79CA"/>
<path d="M53.3507 67.8918C53.3507 70.1561 51.9472 72.058 50.2192 72.058C48.4912 72.058 47.0878 70.1938 47.0878 67.8918C47.0878 65.5899 48.4912 63.7257 50.2192 63.7257C51.9472 63.7257 53.3507 65.5974 53.3507 67.8918Z" fill="#390A0A"/>
<path d="M53.962 64.3068C53.962 64.7597 53.0716 65.122 51.9775 65.122C50.8833 65.122 50.0005 64.7597 50.0005 64.3068C50.0005 63.854 50.8909 63.4842 51.9775 63.4842C53.064 63.4842 53.962 63.8464 53.962 64.3068Z" fill="white"/>
<path d="M72.5399 61.2803C74.8037 62.6691 76.1543 66.0729 74.8037 68.2692C74.7433 68.3824 74.5094 68.3371 74.5245 68.2088C74.6315 67.1927 74.508 66.1655 74.1631 65.2037C73.8182 64.2419 73.2607 63.3704 72.5324 62.654C71.562 61.7673 70.3001 61.2678 68.9859 61.2501C67.4767 61.152 66.8052 62.503 65.6205 62.9634C65.3791 63.0615 65.0697 62.903 65.1527 62.654C66.0884 59.8313 70.2234 59.8765 72.5399 61.2803Z" fill="#390A0A"/>
<path d="M74.23 67.6201C74.23 71.2806 71.9663 74.2543 69.2121 74.2543C66.458 74.2543 64.1942 71.2806 64.1942 67.6201C64.1942 63.9596 66.458 60.986 69.2121 60.986C71.9663 60.986 74.23 63.9596 74.23 67.6201Z" fill="white"/>
<path d="M73.1658 67.8163C73.1658 70.5409 71.4529 72.7523 69.3401 72.7523C67.2273 72.7523 65.5144 70.5636 65.5144 67.8163C65.5144 65.0691 67.2273 62.8728 69.3325 62.8728C71.4378 62.8728 73.1658 65.1068 73.1658 67.8163Z" fill="#3D79CA"/>
<path d="M72.5623 67.8918C72.5623 70.1561 71.1587 72.058 69.4232 72.058C67.6877 72.058 66.2917 70.1938 66.2917 67.8918C66.2917 65.5899 67.6952 63.7257 69.4232 63.7257C71.1512 63.7257 72.5623 65.5974 72.5623 67.8918Z" fill="#390A0A"/>
<path d="M73.1662 64.3068C73.1662 64.7597 72.2834 65.122 71.1893 65.122C70.0951 65.122 69.2123 64.7597 69.2123 64.3068C69.2123 63.854 70.0951 63.4842 71.1893 63.4842C72.2834 63.4842 73.1662 63.8464 73.1662 64.3068Z" fill="white"/>
<path d="M59.6438 64.42C59.6438 64.42 58.1346 62.9106 57.863 68.2843C57.5913 73.658 57.863 79.2732 57.863 79.2732C57.863 79.2732 54.3014 77.1902 55.4861 80.1638C56.1275 81.7639 57.6366 82.5865 59.259 83.0092C59.8483 83.1796 60.4741 83.1777 61.0624 83.0039C61.6507 82.83 62.177 82.4914 62.5791 82.028C63.0017 81.6129 65.205 79.3789 64.5108 78.6846C64.1788 78.3449 62.2471 79.1449 61.7566 79.2732C61.7415 79.2732 62.315 63.2351 59.6438 64.42Z" fill="#E1A387"/>
<path d="M68.5328 86.1791C68.5328 86.1791 61.5379 98.1718 51.8794 86.632C51.8794 86.632 57.5085 84.73 59.5685 86.4206L60.3231 87.2735C60.3231 87.2735 62.4962 84.5942 68.5328 86.1791Z" fill="#CE8D75"/>
<path d="M68.5328 86.1791C68.5328 86.1791 61.5379 98.1719 51.8794 86.632C51.9322 86.632 61.3719 90.9641 68.5328 86.1791Z" fill="#E1A387"/>
<path d="M55.9621 58.5451C55.9621 59.8129 52.728 59.0983 48.7753 59.0983C44.8226 59.0983 41.5886 59.8129 41.5886 58.5451C41.5886 57.2773 44.8155 54.5068 48.7753 54.5068C52.7352 54.5068 55.9621 57.2773 55.9621 58.5451Z" fill="#343434"/>
<path d="M76.7238 58.5451C76.7238 59.8129 73.497 59.0983 69.5371 59.0983C65.5772 59.0983 62.3503 59.8129 62.3503 58.5451C62.3503 57.2773 65.5772 54.5068 69.5371 54.5068C73.497 54.5068 76.7238 57.2773 76.7238 58.5451Z" fill="#343434"/>
</g>
</g>
<defs>
<filter id="filter0_d_202_208" x="10.7168" y="29.9814" width="99.2203" height="98.0186" filterUnits="userSpaceOnUse" color-interpolation-filters="sRGB">
<feFlood flood-opacity="0" result="BackgroundImageFix"/>
<feColorMatrix in="SourceAlpha" type="matrix" values="0 0 0 0 0 0 0 0 0 0 0 0 0 0 0 0 0 0 127 0" result="hardAlpha"/>
<feOffset dy="4"/>
<feGaussianBlur stdDeviation="2"/>
<feComposite in2="hardAlpha" operator="out"/>
<feColorMatrix type="matrix" values="0 0 0 0 0 0 0 0 0 0 0 0 0 0 0 0 0 0 0.25 0"/>
<feBlend mode="normal" in2="BackgroundImageFix" result="effect1_dropShadow_202_208"/>
<feBlend mode="normal" in="SourceGraphic" in2="effect1_dropShadow_202_208" result="shape"/>
</filter>
</defs>
</svg>
